<svg width="18" height="18" viewBox="0 0 18 18" fill="none" xmlns="http://www.w3.org/2000/svg">
<circle cx="9" cy="9" r="9" fill="#DB552B"/>
<path d="M13.6078 4.28348C13.2299 3.90551 12.6511 3.90551 12.2731 4.28348L8.94565 7.61092L5.6883 4.35356C5.31441 3.97967 4.67542 3.97564 4.29581 4.34145C4.08872 4.50498 4 4.7572 4 4.99465C4 5.23887 4.09231 5.49713 4.28348 5.6883L4.35355 5.75839L7.60909 8.94748L4.35356 12.203C3.97559 12.581 3.97559 13.1598 4.35356 13.5377C4.54368 13.7279 4.81892 13.8212 5.02093 13.8212C5.15523 13.8212 5.27832 13.7985 5.39404 13.7471C5.50825 13.6964 5.60274 13.6231 5.68734 13.5387L5.6883 13.5377L8.94384 10.3487L12.203 13.6078C12.581 13.9858 13.1598 13.9858 13.5377 13.6078C13.9125 13.233 13.9103 12.6722 13.6311 12.2999L13.6204 12.2857L13.5396 12.2048L13.5377 12.203L10.3487 8.94747L13.6078 5.6883C13.9952 5.30093 13.9703 4.73406 13.6263 4.30408L13.6176 4.29327L13.6078 4.28348Z" fill="white"/>
</svg>
